<?xml version="1.0" encoding="UTF-8"?>
<svg id="Layer_1" data-name="Layer 1" xmlns="http://www.w3.org/2000/svg" viewBox="0 0 332.35 102.36">
  <defs>
    <style>
      .cls-1 {
        fill: #666633;
      }
    </style>
  </defs>
  <path d="M24.12,83.2c-.49,1.02-.93,2.07-1.36,3.12-.29,.69-.79,1.07-1.47,1.41-1.17,.59-2.32,.68-3.49,.2-.58-.23-1.1-.62-1.61-.99-.3-.22-.17-.54-.03-.82,.51-1.02,1-2.05,1.53-3.05,.38-.73,.68-1.45,.52-2.3-.05-.26,.08-.59,.22-.84,.94-1.66,1.93-3.29,2.87-4.95,1.11-1.95,2.2-3.91,3.27-5.88,.92-1.71,1.79-3.44,2.7-5.16,.82-1.54,1.66-3.06,2.5-4.59,1.21-2.19,2.42-4.39,3.64-6.57,.28-.5,.62-.96,.92-1.44,.91-1.51,1.8-3.04,2.73-4.55,.75-1.22,1.56-2.41,2.32-3.64,.99-1.59,1.94-3.21,2.94-4.8,.73-1.16,1.5-2.3,2.25-3.45,.84-1.29,1.67-2.58,2.51-3.86,.29-.45,.6-.89,.89-1.34,.63-.98,1.27-1.97,1.88-2.96,.49-.8,.95-1.62,1.45-2.41,.63-1.03,1.28-2.05,1.94-3.05,.18-.27,.43-.51,.67-.73,.17-.16,.44-.23,.56-.41,.65-.94,1.56-.93,2.52-.76,.17,.03,.33,.05,.49,.09,1.94,.5,2.13,.9,2.51,2.9,.56,2.93,1.06,5.87,2.35,8.6,.79,1.66,1.49,3.37,2.22,5.06,.92,2.12,1.9,4.22,2.74,6.37,1.07,2.75,1.97,5.56,3.03,8.31,.89,2.31,1.86,4.6,2.88,6.85,1.42,3.11,2.89,6.19,4.4,9.26,1.38,2.8,2.81,5.56,4.26,8.32,.37,.71,.89,1.34,1.34,2,1.01,1.48,1,2.06-.89,2.82-1.36,.55-2.65,.14-3.9-.35-.3-.12-.57-.47-.74-.78-1.1-2.07-2.2-4.14-3.23-6.24-1.12-2.29-2.19-4.6-3.24-6.92-.87-1.92-1.68-3.86-2.53-5.79-.37-.83-.8-1.62-1.16-2.45-.58-1.32-1.12-2.64-1.74-4.1-1.08,.16-2.09,.26-3.06,.47-2.21,.49-4.46,.6-6.7,.66-2.89,.07-5.77,.04-8.66,.08-1.01,.01-2.01,.13-3.02,.17-1.47,.06-2.95,.14-4.42,.13-.82,0-1.39,.2-1.74,1.02-.44,1.01-.98,1.97-1.5,2.94-.52,.97-1.08,1.92-1.58,2.9-.47,.93-.86,1.89-1.32,2.82-.81,1.61-1.65,3.21-2.47,4.82-.16,.32-.3,.66-.39,1-.27,1.09-1.04,1.89-1.61,2.8-.56,.9-1.18,1.76-1.71,2.69-.22,.39-.2,.91-.38,1.33m-1.08,3.18M55.53,27.81c-.31,.24-.47,.31-.56,.44-1,1.42-2.02,2.84-2.98,4.29-1.04,1.56-2.01,3.16-3.02,4.74-1.44,2.25-2.9,4.48-4.32,6.74-.64,1.02-1.19,2.08-1.81,3.11-.67,1.12-1.22,2.29-1.6,3.68,.36,.04,.65,.11,.93,.1,2.54-.12,5.09-.08,7.61-.49,.3-.05,.6-.06,.9-.05,4.11,.11,8.18-.36,12.25-.72,.41-.04,.81-.2,1.15-.3-1.94-7.58-5.41-14.41-8.55-21.54Z"/>
  <path d="M12.07,65.19c-.28,.22-.57,.41-.83,.65-.67,.62-1.3,1.29-2,1.87-.39,.32-.87,.54-1.33,.76-1.15,.57-2.23,.24-3.27-.32-.7-.38-.89-1.2-.69-1.97,.18-.71,.58-1.06,1.24-1.23,.74-.19,1.33-.62,1.88-1.13,.92-.84,1.73-1.79,2.79-2.5,.91-.61,1.62-1.51,2.42-2.29,1.53-1.49,3.03-3.02,4.59-4.48,1.04-.97,2.15-1.87,3.25-2.77,.68-.56,1.47-.51,2.36,.1,.48,.32,.75,1.08,.51,1.77-.35,1.01-.29,2-.12,3.03,.16,.98,.2,1.99,.22,2.99,.03,1.66,.05,3.32-.02,4.97-.04,.9-.23,1.81-.46,2.69-.23,.88-1.28,1.1-2.01,.42-.69-.64-1.29-1.37-1.24-2.43,.03-.57-.03-1.14-.08-1.7-.02-.26-.14-.52-.26-.95-.22,.32-.35,.46-.43,.62-.75,1.66-1.48,3.33-2.22,5-.48,1.07-.99,2.12-1.45,3.19-.72,1.71-1.46,3.41-2.09,5.15-.57,1.59-1.3,3.09-2,4.62-.57,1.24-1.17,2.45-1.47,3.82-.22,1.01-.76,1.95-1.21,2.91-.09,.21-.37,.32-.56,.49-.33,.3-.73,.56-.98,.91-.47,.67-.87,1.4-1.34,2.18,.21,.11,.38,.26,.58,.29,.51,.08,1.02,.16,1.53,.15,2.83-.05,5.66-.07,8.48-.22,3.08-.17,6.15-.48,9.23-.7,1.08-.08,2.17-.05,3.26-.08,.09,0,.17,.02,.26,.01,1.91-.29,3.82,.05,5.73-.03,2.2-.09,4.4,.03,6.59-.1,1.07-.06,2.03,.23,3.02,.45,1.32,.28,1.79,1.83,.83,2.78-.65,.65-1.5,1.07-2.45,1.06-1.86-.02-3.71-.14-5.56-.18-4.05-.09-8.1-.37-12.16-.16-2.28,.12-4.56,.33-6.84,.45-2.62,.14-5.25,.23-7.88,.31-1.31,.04-2.63,.02-3.94,.01-.97,0-1.94,0-2.91-.07-.95-.07-1.73-.6-2.42-1.19-.39-.34-.53-.89-.43-1.43,.09-.47,.07-.9-.14-1.33-.2-.41-.08-.76,.22-1.09,.32-.36,.61-.75,.86-1.16,.79-1.32,1.51-2.67,2.09-4.11,.58-1.42,1.41-2.73,2.08-4.12,1.31-2.73,2.63-5.45,3.85-8.21,.91-2.06,1.68-4.18,2.53-6.27,.17-.41,.38-.81,.57-1.21-.07-.07-.15-.14-.22-.21Z"/>
  <path d="M74.32,24.59c.47-.85,.98-1.67,1.39-2.54,.27-.58,.37-1.24,.6-1.84,.21-.56,.49-1.09,.74-1.63,.14-.31,.39-.44,.7-.49,.96-.15,1.84,.11,2.66,.56,.57,.31,.72,.71,.51,1.33-.27,.8-.57,1.59-.91,2.37-.83,1.89-1.69,3.77-2.53,5.66-.39,.87-.67,1.75-.79,2.71-.14,1.04-1.03,2.17-2.46,1.67-1.01-.36-1.85-.94-2.51-1.79-.8-1.03-1.69-1.94-2.86-2.59-1.09-.6-2.1-1.34-3.12-2.05-.38-.27-.73-.61-1.02-.97-.17-.21-.26-.55-.24-.82,.04-.94,.77-1.45,1.79-1.23,.85,.18,1.72,.35,2.38,1.01,.09,.09,.26,.1,.41,.16,.03-.11,.09-.19,.07-.24-.29-.63-.61-1.24-.89-1.88-.26-.59-.44-1.22-.7-1.81-.34-.77-.73-1.52-1.1-2.28-.04-.09-.1-.17-.14-.26-.61-1.28-1.18-2.59-1.86-3.83-.68-1.24-1.44-2.44-2.23-3.62-1.05-1.57-2.16-3.11-3.25-4.66-.52-.74-.86-.73-1.42-.02-.92,1.18-1.88,2.33-2.81,3.5-1.33,1.68-2.63,3.38-3.95,5.07-.75,.96-1.5,1.92-2.28,2.86-.58,.71-1.24,1.36-1.81,2.09-.94,1.22-1.83,2.48-2.74,3.72-.4,.54-.79,1.08-1.18,1.63-.3,.43-.57,.88-.88,1.29-.5,.65-1,1.3-1.54,1.92-1.14,1.29-2.2,2.65-3.05,4.15-.23,.41-.44,.84-.62,1.27-.23,.53-.52,.95-1.17,1.02-.48,.05-.79,.36-1.04,.77-.5,.82-.67,.87-1.59,.57-.21-.07-.43-.12-.64-.22-.46-.21-.59-.51-.37-.97,.27-.56,.62-1.08,.9-1.64,.14-.28,.26-.6,.28-.91,.03-.42,.19-.75,.44-1.09,1.16-1.59,2.31-3.19,3.46-4.78,.87-1.21,1.76-2.41,2.59-3.64,.56-.82,1.01-1.71,1.55-2.55,.34-.52,.75-.99,1.13-1.48,.97-1.23,1.94-2.46,2.91-3.69,.86-1.1,1.71-2.2,2.56-3.31,.41-.53,.82-1.07,1.23-1.6,.55-.71,1.07-1.41,1.78-2,.75-.63,1.33-1.48,1.99-2.23,.82-.94,1.63-1.88,2.46-2.8,.23-.25,.54-.43,.8-.66,.17-.14,.38-.28,.46-.47,.27-.6,.7-.94,1.34-1.07,.29-.06,.56-.24,.85-.26,.18-.01,.43,.12,.54,.27,.7,.97,1.34,1.97,2.04,2.94,.91,1.28,1.85,2.54,2.79,3.8,.58,.78,1.24,1.51,1.76,2.32,.98,1.54,1.93,3.09,2.8,4.69,1.43,2.62,2.8,5.29,4.18,7.94,.3,.57,.52,1.19,.81,1.77,.16,.32,.38,.61,.58,.91,.07-.02,.14-.03,.22-.05Z"/>
  <path d="M68.71,90.63c.27,.05,.45,.13,.63,.12,.74-.03,1.48-.03,2.21-.13,2.14-.29,4.29-.58,6.42-.94,1.11-.19,2.21-.48,3.29-.79,1.87-.52,3.73-1.09,5.59-1.65,.75-.23,1.46-.61,2.27-.61,.14,0,.28-.09,.41-.16,.67-.36,1.34-.72,1.97-1.06,.11-.41-.11-.62-.36-.78-.69-.43-.96-1.06-1.03-1.85-.1-1.24-.61-2.38-1.01-3.54-.39-1.11-.81-2.22-1.19-3.33-.62-1.86-1.24-3.73-1.82-5.6-.43-1.39-.78-2.8-1.18-4.19-.49-1.73-1.08-3.42-1.83-5.06-.22-.46-.37-.96-.49-1.46-.06-.27-.02-.59,.06-.86,.16-.55,.41-.72,.98-.68,1.07,.07,1.89,.62,2.42,1.49,.82,1.34,1.53,2.75,2.03,4.25,.53,1.61,1.13,3.2,1.66,4.81,.52,1.57,.95,3.16,1.5,4.71,.68,1.92,1.52,3.79,2.14,5.73,.51,1.58,1.4,2.97,1.99,4.51,.28,.73,.74,1.39,1.02,2.12,.26,.67,.34,1.39-.06,2.05-.55,.93-1.34,1.56-2.38,1.86-1.28,.36-2.55,.75-3.84,1.06-.98,.24-1.99,.33-2.98,.55-2.69,.6-5.36,1.27-8.06,1.83-1.25,.26-2.54,.33-3.81,.48-.71,.08-1.42,.19-2.13,.24-.81,.05-1.62,.07-2.43,.07-1.06,0-2.11-.04-3.17-.06-.18,0-.36,.04-.54,.06-.02,.05-.03,.1-.05,.16,.16,.12,.32,.26,.49,.37,2.06,1.3,4.13,2.57,6.18,3.89,.66,.42,1.26,.94,1.89,1.42,.14,.1,.27,.22,.38,.35,.83,.91,.5,2.03-.72,2.27-.99,.2-1.97,.06-2.83-.53-1.14-.78-2.26-1.57-3.4-2.35-.93-.64-1.85-1.3-2.8-1.9-.98-.63-2.13-.88-3.2-1.31-.9-.36-1.83-.71-2.53-1.45-.54-.58-.58-.9-.08-1.47,.67-.75,1.36-1.49,2.1-2.17,.35-.33,.86-.48,1.25-.77,.97-.72,1.92-1.46,2.85-2.22,1.03-.83,2.19-1.41,3.47-1.75,.05-.01,.09-.03,.14-.04,.84-.18,1.39,.01,1.58,.55,.28,.79,.02,1.59-.66,1.99-.21,.12-.45,.2-.68,.3-.69,.3-1.08,.63-1.69,1.47Z"/>
  <path d="M320.62,81.26c-.5,.18-1.21,.39-1.87,.7-1.16,.54-2.37,.72-3.62,.72-1.77,0-3.56,.17-5.3-.3-.68-.18-1.32-.47-1.99-.69-.76-.25-1.53-.52-2.31-.68-2.03-.42-3.6-1.59-5.01-3.02-.77-.78-1.45-1.66-2.15-2.51-.45-.55-.77-1.18-.79-1.92,0-.2-.03-.41-.1-.59-.74-1.83-.7-3.75-.62-5.66,.05-1.12-.14-2.29,.4-3.37,1.48-2.97,2.6-6.13,4.51-8.86,1.44-2.05,3.02-4.02,5.63-4.79,1.25-.37,2.47-.54,3.77-.35,3.05,.45,5.75,1.74,8.37,3.29,.95,.56,1.92,1.1,2.92,1.58,1.07,.52,2.01,1.2,2.81,2.08,.66,.73,1.46,1.24,2.36,1.67,1.3,.62,2.57,1.33,3.73,2.16,.95,.68,1.13,1.82,.94,2.91-.18,1.05-.91,1.71-1.97,1.9-1.85,.32-3.71,.64-5.57,.89-1.26,.17-2.54,.18-3.8,.32-2.3,.26-4.59,.62-6.89,.84-2.1,.2-4.22,.28-6.33,.38-1.34,.06-2.68,.05-4.02,.1-.33,.01-.66,.09-.98,.19-.47,.15-.69,.5-.65,1.01,.16,2.24,.86,4.18,2.85,5.46,.45,.29,.82,.7,1.27,.97,.59,.37,1.2,.77,1.86,.96,2.61,.76,5.26,1.05,7.95,.43,2.65-.62,5.23-1.4,7.54-2.92,.77-.51,1.67-.85,2.54-1.16,.98-.35,1.79,.17,2.43,.82,.58,.59,.75,1.36,.29,2.13-.27,.46-.56,.92-.92,1.31-.99,1.06-2.1,1.99-3.45,2.56-1.2,.51-2.27,1.34-3.84,1.43Zm-17.31-17.95c.51,.07,.89,.16,1.26,.16,.67,0,1.34-.05,2.01-.09,1.37-.09,2.75-.11,4.11-.29,3.02-.4,6.04-.87,9.05-1.34,.83-.13,1.63-.37,2.44-.59,.2-.05,.36-.22,.58-.36-.69-1.08-1.5-1.89-2.55-2.47-.82-.45-1.65-.89-2.45-1.39-1.37-.86-2.73-1.66-4.32-2.09-2.01-.54-3.84-.16-5.42,1.01-1.08,.8-1.86,1.99-2.77,3.02-.09,.1-.12,.24-.18,.36-.39,.85-.79,1.7-1.17,2.55-.2,.45-.36,.92-.6,1.53Z"/>
  <path d="M149.12,74.59c-.4,.34-.81,.66-1.19,1.02-1.36,1.26-2.82,2.38-4.61,2.94-2.33,.73-4.51,.3-6.5-1.09-.3-.21-.57-.47-.85-.71-.91-.75-1.34-1.74-1.4-2.9-.16-3.08-.38-6.16-.47-9.24-.05-1.62,.21-3.21,1.2-4.6,.28-.4,.36-.93,.62-1.35,.45-.74,.94-1.46,1.45-2.15,.3-.4,.67-.75,1.04-1.09,1.09-1.01,2.33-1.74,3.74-2.26,1.42-.51,2.89-.51,4.35-.7,.96-.13,1.87,.19,2.69,.67,.33,.19,.7,.48,.57,.97-.11,.42-.46,.53-.84,.6-.66,.12-1.31,.31-1.97,.42-1.83,.3-3.29,1.27-4.59,2.52-2.24,2.16-3.58,4.76-3.74,7.89-.04,.83,.05,1.68,.13,2.51,.16,1.67,.33,3.34,.53,5,.22,1.79,1.05,2.24,2.6,1.36,2-1.14,3.73-2.59,5.22-4.37,.57-.67,1.12-1.49,2.19-1.57,.38-.03,.48-.4,.52-.76,.15-1.37,.29-2.74,.47-4.1,.4-3.06,.81-6.12,1.23-9.17,.68-4.99,1.77-9.9,2.89-14.81,.76-3.34,1.57-6.66,2.34-9.99,.23-1.01,.4-2.04,.65-3.05,.68-2.84,1.53-5.63,3.02-8.18,.45-.78,1.15-1.3,2.03-1.5,1.07-.24,2,.67,1.87,1.76-.22,1.74-.75,3.4-1.34,5.04-.21,.59-.35,1.22-.47,1.84-.42,2.17-.76,4.36-1.22,6.53-.73,3.44-1.56,6.87-2.31,10.31-1.2,5.51-2.02,11.09-2.84,16.66-.66,4.45-1,8.93-1.23,13.42-.1,1.94-.1,3.89-.21,5.83-.03,.58-.25,1.17-.5,1.71-.11,.25-.49,.39-.77,.54-.17,.09-.4,.06-.59,.11-1.97,.5-3.39-.54-3.46-2.57-.03-.74,.01-1.48,.02-2.22,0-.36,0-.73,0-1.09-.09-.05-.18-.1-.26-.15Z"/>
  <path d="M227.65,43.28c.37,.03,.57,.06,.77,.05,2.51-.16,5.02-.32,7.53-.48,.43-.03,.87,.03,1.3,.03,2.18-.04,4.35-.07,6.53-.13,.87-.02,1.74-.12,2.61-.18,1.24-.09,1.82,.26,2.39,1.4,.03,.06,.06,.12,.08,.18,.15,.42,.59,.77,.33,1.29-.33,.66-.61,1.36-1.37,1.66-.84,.33-1.69,.56-2.63,.55-2.34-.02-4.69,.05-7.04,.09-1.91,.03-3.82,.02-5.73,.13-1.74,.1-3.46,.36-5.2,.53-.53,.05-.64,.43-.72,.83-.19,1.02-.35,2.05-.55,3.07-.26,1.35-.62,2.68-.81,4.04-.32,2.29-.58,4.58-.77,6.89-.3,3.74-.54,7.49-.78,11.23-.06,.87,.01,1.74-.02,2.61-.03,.76-.12,1.52-.18,2.23-.44,.15-.75,.31-1.07,.34-.52,.05-1.07,.11-1.57,0-1.21-.28-2.37-2.15-2.27-3.39,.2-2.31,.33-4.62,.51-6.92,.15-2.04,.33-4.08,.49-6.11,.1-1.17,.07-2.36,.33-3.49,.21-.94,.36-1.85,.33-2.8,0-.22,.05-.49,.18-.66,.44-.6,.5-1.3,.64-1.99,.28-1.42,.59-2.82,.88-4.24,.08-.39,.16-.78,.26-1.26-.46-.03-.85-.11-1.23-.08-2.84,.25-5.61-.39-8.4-.66-1.3-.13-2.61-.22-3.91-.28-1.3-.06-2.63-1.06-2.9-2.21-.16-.69,.14-1.25,.4-1.82,.07-.16,.37-.29,.58-.31,.56-.05,1.14-.1,1.7-.04,1.93,.21,3.85,.6,5.79,.69,2.54,.12,5.09,.02,7.64,.02,.17,0,.33-.08,.5-.08,.73,.02,.98-.44,1.1-1.06,.25-1.28,.52-2.57,.76-3.85,.38-2.04,.78-4.09,1.11-6.14,.4-2.45,.76-4.9,1.1-7.36,.33-2.37,.89-4.67,1.91-6.85,.25-.55,1.61-1.26,2.19-1.07,.21,.07,.4,.32,.53,.53,.2,.34,.32,.72,.52,1.06,.33,.56,.12,1.1,0,1.65-.45,1.96-.97,3.91-1.31,5.89-.5,2.94-.85,5.91-1.31,8.85-.34,2.19-.73,4.37-1.09,6.55-.05,.32-.08,.65-.13,1.08Z"/>
  <path d="M101.84,50.43c-1.15-.08-2.1,.27-3.07,.5-1.86,.45-3.7,.95-5.56,1.4-.98,.24-3.04-.61-3.6-1.44-.55-.81-.22-1.86,.74-2.2,.88-.32,1.78-.59,2.69-.83,2.63-.69,5.26-1.36,7.89-2.04,1.29-.33,1.29-.43,1.4-1.8,.22-2.7,.47-5.4,.8-8.09,.32-2.66,.76-5.31,1.11-7.97,.19-1.5,.23-3.01,.47-4.5,.21-1.28,.61-2.53,.91-3.8,.24-1,1.55-1.35,2.4-1.14,1.16,.29,1.81,.93,1.76,1.99-.04,.73-.24,1.45-.34,2.18-.09,.66-.16,1.32-.23,1.99-.11,1.03-.2,2.07-.34,3.1-.7,5.15-1.56,10.28-1.84,15.48-.02,.32,.03,.65,.05,1.09,.52-.06,.95-.08,1.36-.17,3.39-.67,6.81-1.12,10.25-1.52,1.24-.14,2.43-.34,3.68-.19,1.42,.18,2.74,1.38,2.91,2.76,.06,.46-.13,.81-.48,1.04-.93,.6-1.85,1.13-3.08,.88-1.73-.35-3.49-.12-5.21,.15-2.95,.47-5.88,1.04-8.81,1.59-.87,.16-.87,.25-.9,1.14-.08,2.28-.18,4.55-.31,6.82-.23,4.25-.44,8.51-.76,12.76-.17,2.23-.56,4.45-.85,6.68-.05,.36-.15,.73-.13,1.09,.04,.62-.24,1.07-.56,1.57-.45,.71-1.07,.88-1.82,.72-.59-.12-1.19-.23-1.74-.47-.76-.33-1.22-.94-1.13-1.83,.09-.83,.16-1.67,.32-2.49,.48-2.38,.44-4.81,.63-7.21,.23-2.97,.47-5.95,.73-8.92,.19-2.14,.44-4.27,.64-6.4,.05-.59,0-1.2,0-1.9Z"/>
  <path d="M261.53,56.15c.13-1.7,.95-2.38,2.44-1.92,.72,.22,1.4,.54,2.11,.81,.62,.24,.99,.76,1.31,1.34,.95,1.66,1.91,3.32,2.84,5,.89,1.61,1.76,3.24,2.64,4.86,.94,1.75,1.88,3.51,2.83,5.26,.34,.62,.86,.73,1.35,.18,.71-.8,1.38-1.64,1.97-2.54,1.69-2.55,3.25-5.21,5.01-7.69,1.89-2.66,3.96-5.17,5.94-7.76,.39-.51,.76-1.04,1.06-1.61,.54-1.02,1.8-1.27,2.58-.46,.27,.28,.55,.55,.84,.81,.73,.65,1.08,1.52,1.16,2.51,.03,.31-.03,.7-.19,.94-.51,.78-1.08,1.51-1.64,2.25-.19,.25-.47,.45-.63,.72-1.56,2.56-3.01,5.19-4.05,8.06-.13,.37-.09,.87,0,1.28,.15,.62,.16,1.15-.26,1.65-.15,.18-.27,.44-.31,.68-.19,1.11-.81,1.94-1.47,2.74-.71,.85-1.4,1.72-2.14,2.53-.98,1.08-2.01,2.09-2.99,3.16-.74,.81-1.55,1.58-2.13,2.52-1,1.62-2.98,1.49-4.21,.63-.89-.62-1.74-1.03-2.82-1.1-1.45-.09-2.56-1.08-3.33-2.32-1.1-1.77-1.97-3.71-3.03-5.51-1.95-3.33-2.57-7.1-3.29-10.86-.29-1.51-.76-2.99-1.15-4.48-.14-.56-.28-1.12-.42-1.68Z"/>
  <path d="M177.84,64.6c.17-2.57,.22-5.15,.77-7.69,.38-1.76,.65-3.55,1.04-5.32,.25-1.11,1.06-1.77,2-1.58,.94,.19,1.8,.69,2.13,1.65,.21,.61,.3,1.32,.25,1.97-.1,1.3-.37,2.59-.51,3.89-.23,2.13-.41,4.27-.61,6.41-.15,1.63-.25,3.28-.48,4.9-.33,2.31-.16,4.62-.08,6.93,.05,1.33,.05,2.67-.53,3.93-.34,.75-1.82,1.49-2.6,1.24-1.48-.48-2.13-1.49-2.13-3.03,0-1.3-.13-2.6-.2-3.91-.02-.33-.04-.65-.06-.98-.09-.06-.19-.12-.28-.18-.07,.15-.15,.29-.22,.44-.83,1.84-2.09,3.37-3.7,4.54-2.46,1.79-5.2,2.01-7.91,.71-1.34-.65-2.4-1.8-2.96-3.29-.94-2.47-1.42-5.04-1.45-7.67-.03-2.51,.11-5.03,.56-7.52,.22-1.19,.48-2.37,.75-3.54,.07-.32,.2-.64,.35-.93,.53-.97,1.45-1.38,2.53-1.17,.91,.18,1.5,1.08,1.37,2.16-.2,1.62-.52,3.24-.62,4.87-.22,3.48-.46,6.97,.4,10.41,.19,.77,.47,1.54,.82,2.26,.58,1.17,1.9,1.46,2.92,.61,.92-.77,1.82-1.61,2.58-2.53,1.47-1.79,2.83-3.66,4.24-5.49,.24-.32,.5-.64,.8-.9"/>
  <path d="M212.55,63.25c.02,2.4-.63,4.34-1.63,6.14-1.02,1.84-2.17,3.61-3.35,5.36-.46,.68-1.14,1.21-1.75,1.79-.55,.53-1.08,1.12-1.72,1.53-1.06,.68-2.15,1.4-3.33,1.82-1.71,.61-3.5,.86-5.35,.65-1.21-.13-2.26-.67-3.24-1.26-1.28-.77-2.46-1.72-3.44-2.9-1.31-1.58-2.29-3.27-2.49-5.37-.12-1.3-.38-2.6,.04-3.88,.38-1.14,.7-2.33,1.28-3.38,.4-.72,.67-1.47,1.06-2.18,.57-1.04,1.59-1.61,2.47-2.31,1-.8,2.05-1.45,3.29-1.87,1.77-1.05,1.36-.75,1.74-1.57,.23-.49,.82-.9,1.34-1.15,1.86-.9,3.85-1.27,5.88-.85,1,.21,2.01,.62,2.86,1.18,1.36,.9,2.6,1.99,3.88,3.03,.64,.52,1.3,1.01,1.69,1.81,.57,1.18,.82,2.41,.76,3.41Zm-11.7-5c-.69,.02-1.37,.28-2.05,.46-.71,.18-1.41,.39-2.11,.59-.25,.07-.56,.09-.74,.25-.92,.83-1.97,1.58-2.67,2.57-.91,1.3-1.72,2.69-2.22,4.26-.8,2.51-.46,4.86,.62,7.19,.4,.87,1.15,1.37,1.73,2.06,.49,.57,1.17,.84,1.83,.92,1.11,.14,2.22-.06,3.22-.61,1.91-1.05,3.46-2.57,4.76-4.26,1.09-1.43,1.97-3.03,2.85-4.61,.69-1.22,1.25-2.52,1.46-3.93,.1-.66,.03-1.26-.27-1.85-.78-1.51-2.1-2.39-3.57-3.09-.13-.06-.52,.15-1.52,.15"/>
  <path d="M251.63,73.83c-.27,.13-.39,.14-.44,.22-.84,1.26-1.88,2.21-2.97,3.09-1.78,1.44-3.6,2.66-5.83,2.3-.82-.13-1.66-.06-2.46-.25-.74-.18-1.44-.59-2.15-.92-.8-.37-1.22-1.28-1.66-2.08-.66-1.2-1.13-2.52-1.34-3.98-.3-2.08-.67-4.14-.58-6.29,.11-2.7,.36-5.38,.88-8,.12-.59,.37-1.17,.68-1.64,.17-.26,.58-.43,.87-.4,1.17,.09,2.2,.67,2.98,1.76,.49,.68,.68,1.65,.35,2.45-.92,2.28-.77,4.69-.69,7.09,.04,1.28,.16,2.57,.35,3.83,.12,.76,.39,1.51,.7,2.17,.34,.73,1.21,.76,2.09,.33,1.26-.62,2.27-1.69,3.25-2.79,1.74-1.95,3.19-4.23,4.44-6.67,.8-1.56,1.33-3.33,1.09-5.31-.19-1.53,.29-2.95,.67-4.35,.27-.97,.96-1.56,1.67-2.05,.11-.08,.27-.16,.38-.12,.81,.34,1.64,.62,2.4,1.09,.56,.35,.73,1.16,.85,1.9,.17,1.13,.26,2.28,.43,3.41,.24,1.63-.05,3.14-.61,4.58-.45,1.16-.58,2.3-.5,3.6,.17,2.73,.18,5.47,.24,8.21,.03,1.08,.05,2.16,.04,3.24,0,.66-.09,1.32-.11,1.99-.03,1.33-.8,1.94-1.57,2.51-.39,.29-.84,.21-1.24-.09-.28-.21-.53-.52-.84-.67-1.09-.54-1.28-1.66-1.27-2.93,0-1.25,.02-2.49,0-3.74,0-.44-.07-.88-.12-1.46Z"/>
  <path d="M125.11,62.52c.93,.51,1.29,1.08,1.03,1.94-.29,.98-.21,2.01-.27,3.03-.05,.7-.08,1.39-.1,2.09-.04,1.44-.06,2.87-.12,4.31-.03,.86-.11,1.73-.19,2.59-.03,.38-.55,.76-1.23,.86-.46,.07-.94,.08-1.42,.12,0,0,0-.02,0-.02-.44,.04-.88,.08-1.31,.13-2.31,.23-3.58-.66-3.52-2.08,.04-.84-.24-1.63-.35-2.44-.02-.17-.11-.33-.11-.5-.07-1.48-.1-2.95-.2-4.43-.06-.84-.23-1.68-.35-2.52-.03-.23-.03-.46-.07-.69-.2-1.1,.46-2.12,.7-3.18,.17-.77,1.71-1.3,2.83-1.06"/>
  <path d="M310.85,47.32c-1.94-.08-2.74-.58-3.21-1.95-.51-1.47-.3-2.75,.64-3.95,.33-.41,.71-.66,1.25-.74,.55-.08,1.1-.27,1.62-.46,.64-.24,1.26-.21,1.65,.3,.52,.69,1.04,1.41,1.36,2.2,.5,1.23,.03,2.57-1.01,3.41-.82,.67-1.67,1.25-2.3,1.18Z"/>
  <path d="M123.83,58.97c-1.37,.04-3.52-1.77-3.78-3.14-.05-.23,0-.6,.15-.73,.49-.44,.94-.95,1.68-1,1.82-.13,3.38,.28,4.45,1.91,.57,.88,.33,1.93-.62,2.34-.6,.26-1.25,.42-1.87,.62Z"/>
  <path class="cls-1" d="M55.53,27.81c3.15,7.13,6.61,13.96,8.55,21.54-.35,.09-.74,.26-1.15,.3-4.08,.36-8.15,.84-12.25,.72-.3,0-.61,0-.9,.05-2.52,.41-5.07,.37-7.61,.49-.28,.01-.56-.06-.93-.1,.38-1.39,.93-2.56,1.6-3.68,.62-1.03,1.17-2.1,1.81-3.11,1.42-2.26,2.88-4.49,4.32-6.74,1.01-1.58,1.99-3.18,3.02-4.74,.96-1.45,1.98-2.87,2.98-4.29,.09-.13,.25-.2,.56-.44Z"/>
</svg>